<?xml version="1.0" encoding="iso-8859-1"?>
<!-- Uploaded to: SVG Repo, www.svgrepo.com, Generator: SVG Repo Mixer Tools -->
<svg fill="#000000" height="800px" width="800px" version="1.1" id="Layer_1" xmlns="http://www.w3.org/2000/svg" xmlns:xlink="http://www.w3.org/1999/xlink" 
	 viewBox="0 0 512 512" xml:space="preserve">
<g>
	<g>
		<g>
			<path d="M373.335,362.667h-10.667V352c0-5.888-4.779-10.667-10.667-10.667c-5.888,0-10.667,4.779-10.667,10.667v10.667h-10.667
				c-5.888,0-10.667,4.779-10.667,10.667v128c0,5.888,4.779,10.667,10.667,10.667h42.667c5.888,0,10.667-4.779,10.667-10.667v-128
				C384.002,367.445,379.223,362.667,373.335,362.667z M362.668,490.667h-21.333V384h21.333V490.667z"/>
			<path d="M305.602,179.84c-3.349-29.547-26.752-51.819-54.379-51.819c-4.245,0-8.064,2.517-9.771,6.4l-17.941,41.024
				l-16.917-40.853c-1.643-3.989-5.547-6.592-9.856-6.592c-27.627,0-51.008,22.272-54.379,51.819l-14.123,123.904
				c-1.173,10.368,2.027,20.651,8.768,28.203c5.824,6.507,13.525,10.304,21.909,10.773l11.776,159.424
				c0.427,5.568,5.056,9.877,10.645,9.877h85.333c5.589,0,10.219-4.309,10.603-9.856l11.776-159.424
				c8.384-0.469,16.107-4.245,21.909-10.773c6.763-7.552,9.963-17.835,8.768-28.203L305.602,179.84z M295.063,317.739
				c-2.112,2.368-4.907,3.691-7.808,3.691h-8.085c-5.589,0-10.24,4.309-10.645,9.877l-11.776,159.36h-65.515l-11.755-159.36
				c-0.427-5.568-5.056-9.877-10.645-9.877h-8.085c-2.901,0-5.675-1.301-7.808-3.691c-2.709-3.029-3.989-7.253-3.499-11.584
				l14.123-123.904c1.835-16.149,12.693-28.885,26.389-32.107l23.445,56.619c1.643,3.947,5.461,6.549,9.749,6.592
				c3.947,0.533,8.171-2.475,9.877-6.4l24.853-56.853c13.781,3.157,24.704,15.936,26.56,32.149l14.123,123.904
				C299.052,310.485,297.772,314.709,295.063,317.739z"/>
			<path d="M224.002,106.667c29.397,0,53.333-23.936,53.333-53.333S253.399,0,224.002,0s-53.333,23.936-53.333,53.333
				S194.604,106.667,224.002,106.667z M224.002,21.333c17.643,0,32,14.357,32,32c0,17.643-14.357,32-32,32s-32-14.357-32-32
				C192.002,35.691,206.359,21.333,224.002,21.333z"/>
		</g>
	</g>
</g>
</svg>